<svg width="32" height="32" viewBox="0 0 32 32" fill="none" xmlns="http://www.w3.org/2000/svg">
  <!-- Outer blue ring -->
  <circle cx="16" cy="16" r="15" fill="url(#gradient1)" stroke="#1e40af" stroke-width="2"/>
  
  <!-- Inner white circle -->
  <circle cx="16" cy="16" r="12" fill="white"/>
  
  <!-- Gear -->
  <g transform="translate(8, 8)">
    <circle cx="8" cy="8" r="6" fill="#1e40af" opacity="0.1"/>
    <circle cx="8" cy="8" r="4" fill="#1e40af"/>
    <circle cx="8" cy="8" r="1.5" fill="white"/>
    <!-- Gear teeth -->
    <rect x="7" y="1" width="2" height="1.5" rx="0.5" fill="#1e40af"/>
    <rect x="7" y="13.5" width="2" height="1.5" rx="0.5" fill="#1e40af"/>
    <rect x="1" y="7" width="1.5" height="2" rx="0.5" fill="#1e40af"/>
    <rect x="13.5" y="7" width="1.5" height="2" rx="0.5" fill="#1e40af"/>
    <rect x="3.5" y="3.5" width="1.5" height="1.5" rx="0.5" fill="#1e40af" transform="rotate(45 4.25 4.25)"/>
    <rect x="11" y="11" width="1.5" height="1.5" rx="0.5" fill="#1e40af" transform="rotate(45 11.75 11.75)"/>
    <rect x="11" y="3.5" width="1.5" height="1.5" rx="0.5" fill="#1e40af" transform="rotate(-45 11.75 4.25)"/>
    <rect x="3.5" y="11" width="1.5" height="1.5" rx="0.5" fill="#1e40af" transform="rotate(-45 4.25 11.75)"/>
  </g>
  
  <!-- Speech Bubble -->
  <g transform="translate(10, 10)">
    <path d="M6 2c-2.21 0-4 1.79-4 4v2c0 2.21 1.79 4 4 4h1v2l2-2h1c2.21 0 4-1.79 4-4V6c0-2.21-1.79-4-4-4H6z" fill="#9ca3af" opacity="0.8"/>
    <path d="M6 3h6c1.66 0 3 1.34 3 3v2c0 1.66-1.34 3-3 3H9l-1 1v-1H6c-1.66 0-3-1.34-3-3V6c0-1.66 1.34-3 3-3z" fill="#e5e7eb"/>
    <rect x="4" y="6" width="4" height="1" fill="#6b7280"/>
    <rect x="4" y="8" width="3" height="1" fill="#6b7280"/>
    <!-- Speech bubble tail -->
    <path d="M4 10l1-1h1l-1 1z" fill="#e5e7eb"/>
  </g>
  
  <!-- Wing -->
  <g transform="translate(16, 4)">
    <circle cx="8" cy="8" r="6" fill="#3b82f6" opacity="0.2"/>
    <circle cx="8" cy="8" r="4" fill="#3b82f6"/>
    <circle cx="8" cy="8" r="2" fill="#60a5fa"/>
    <circle cx="6" cy="6" r="1" fill="#93c5fd"/>
  </g>
  
  <defs>
    <linearGradient id="gradient1" x1="0%" y1="0%" x2="100%" y2="100%">
      <stop offset="0%" style="stop-color:#1e40af;stop-opacity:1" />
      <stop offset="100%" style="stop-color:#1e3a8a;stop-opacity:1" />
    </linearGradient>
  </defs>
</svg>
